# xmcd
#
# Track frame offsets:
#	150
#	14972
#	28380
#	46024
#	58153
#	70129
#	83385
#	96624
#	108421
#	121008
#	140718
#	152383
#	164955
#	179381
#	189631
#	202593
#	211586
#	223655
#	237548
#	248292
#	262082
#	274438
#	290172
#	302452
#	314134
#
# Disc length: 4371
#
# Revision: 2
# Processed by: cddbd v1.5.1PL0 Copyright (c) Steve Scherf et al.
# Submitted via: AltoMP3_Maker 3.0
# Normalized: r0:DSETVAR1,TDELIM( - ),TSWAP
#
DISCID=7d111119
DTITLE=Various Artist - The Best Country In Towu
DYEAR=1900
DGENRE=
TTITLE0=Wynners - Part Of Game
TTITLE1=Jim Deeves - Danny Boy
TTITLE2=Freddie Aguilar - Child
TTITLE3=Clife Richard - Evergreen Tree
TTITLE4=Skeeter Davis - The End of The World
TTITLE5=The Brothers Four - The Greeleaves of Summer
TTITLE6=Hank Illiams - Jambalaya
TTITLE7=Donna Fargo - The Heppiest Girl In The Whole USA
TTITLE8=Peter Paul - 500 Miles
TTITLE9=Conway Twitty and Joni Lee - Don't Cry Joni
TTITLE10=Richard Johns - When A Child Is Born
TTITLE11=Bobby Bare - Detroit City
TTITLE12=Andy Williams - El Condor Pasa
TTITLE13=Patsy Cline - Seven Lonely Days
TTITLE14=Johnny Horton - North To Alaska
TTITLE15=The Everly Brothers - Crying In The Rain
TTITLE16=Tammy Wynette - Stand By Your Man
TTITLE17=The Brother Four - Lemon Tree
TTITLE18=Jim Reeves - He'll Have To Go
TTITLE19=Kingston Trio - Tom Dooley
TTITLE20=Hank Williams - You Cheatin Heart
TTITLE21=Peter Paul and Marry - Puff
TTITLE22=Donna Forgo - Funny Face
TTITLE23=Richard Johns - I'll Have To Say I Love You In A Song
TTITLE24=Dickey Lee - 9,999,999 Thears
EXTD=
EXTT0=
EXTT1=
EXTT2=
EXTT3=
EXTT4=
EXTT5=
EXTT6=
EXTT7=
EXTT8=
EXTT9=
EXTT10=
EXTT11=
EXTT12=
EXTT13=
EXTT14=
EXTT15=
EXTT16=
EXTT17=
EXTT18=
EXTT19=
EXTT20=
EXTT21=
EXTT22=
EXTT23=
EXTT24=
PLAYORDER=
